<?xml version="1.0" encoding="UTF-8"?>
<svg id="Layer_2" data-name="Layer 2" xmlns="http://www.w3.org/2000/svg" viewBox="0 0 503.11 756.96">
  <defs>
    <style>
      .cls-1 {
        fill: #fff;
        stroke-width: 0px;
      }
    </style>
  </defs>
  <g id="Layer_1-2" data-name="Layer 1">
    <g>
      <g>
        <path class="cls-1" d="m242.33,756.96c-.2,0-.46-.01-.6-.02-5.12-.39-9.47-3.82-10.84-8.54-.39-1.35-.71-2.63-1.02-3.89l-.85-3.35c-6.02-20.75-10.41-42.22-14.76-64.25l-.09-.46c-2.56-12.97-5.21-26.38-8.26-39.43-15.83-74.39-49.11-133.69-98.88-176.12-28.69-24.81-61.11-43.08-99.09-55.85-5.36-1.81-8.64-7.04-7.79-12.43.81-5.1,5.1-9.08,10.45-9.69,4.46-.52,9.61-.97,15.76-1.36l2.29-.13c1.19-.02,2.37-.03,3.56-.03,17.03,0,34,1.97,50.42,5.84,63.54,15.37,119.48,56.06,153.45,111.61,1.02,1.67,2.83,2.68,4.78,2.68.04,0,.08,0,.12,0,1.99-.04,3.81-1.15,4.78-2.89,29.81-54.02,78.46-95.82,137.01-117.69,2.11-.79,3.54-2.76,3.63-5.01.1-2.25-1.16-4.33-3.19-5.3-71.94-34.11-123.03-99.89-136.67-175.96-9.97-54.03-3.7-112.03,19.17-177.34,1.61-4.53,5.86-7.59,10.83-7.79h.64c5.56.14,10.15,3.61,11.46,8.63,6.12,23.5,9.75,47.61,13.25,70.93l.19,1.26c1.93,12.85,3.93,26.13,6.38,39.19,12.41,75.04,42.94,135.79,90.73,180.46,18.82,17.84,58.86,40.11,89.12,55.65.94.48,1.57.8,1.84.95,2.19,1.34,4.04,2.29,5.68,3.14,3.83,1.98,5.23,2.7,6.74,5.75.33,1.43.87,5.03.34,7.31-1.07,4.61-4.81,6.44-12.49,9.83l-.61.26c-12.24,5.26-74.6,32.62-100.84,54.75-53.18,44.17-89.19,106.46-106.98,185.11-3.41,13.73-6.4,27.9-9.29,41.6-5.17,24.59-10.53,50.02-18.45,74.49-1.52,4.63-5.96,7.89-11.04,8.08h-.86Z"/>
        <path class="cls-1" d="m243.01,2.37c-1.33-1.47-3.16-2.31-5.16-2.36-3.27-.09-5.91,1.8-8.97,3.99,0,0-.46.33-.46.33-43.76,31.35-51.39,94.57-56.37,136.11-4.19,34.89,2.43,77.1-5.13,111.58-4.89,22.29-18.29,42.61-36.87,55.86-6.42,4.58-13.52,8.38-21.21,10.11-23.48,5.3-44.1-13.03-46.3-36.07-1.74-18.32,7.17-36.23,20.29-40.78,1.65-.57,3.21-.79,4.62-.66,4.04.38,6.3,3.68,5.89,8.61-.25,2.92-1.72,5.58-3.29,8.4-1.33,2.4-2.71,4.89-3.48,7.77-.16.6-.35,1.19-.53,1.79-1.15,3.73-2.73,8.83,2.11,13.37,2.44,2.29,5.27,3.56,8.67,3.88,3.09.29,6.24-.27,9.2-.91,3.63-.8,6.93-2.49,10.09-5.17,12-10.14,16.19-23.56,12.45-39.9-3.61-15.76-14.74-26.76-33.07-32.68-3.95-1.27-8-2.11-12.07-2.5-17.1-1.62-33.42,4.7-44.77,17.34-29.99,33.39-28.87,83.39,2.61,116.31,20.31,21.25,43.05,33.61,65.76,35.76,16.02,1.51,31.89-2.02,47.14-10.51,2.49-1.38,4.89-2.89,7.18-4.47,16.35-9.81,30.29-23.98,39.73-40.56,5.3-9.3,9.41-19.12,12.58-29.27,4.89-13.42,8.03-28.64,9.48-46.03,2.16-24.36.24-48.32-1.6-71.5-1.23-15.38-2.5-31.29-2.44-46.65-.03-22.06,4.06-45.47,12.16-69.61l.31-.95c1.47-4.5,3.18-9.06,4.84-13.47,1.78-4.74,3.63-9.64,5.22-14.61l.38-1.17c1.36-4.21,2.77-8.56,3.11-13.28.16-2.3.12-5.65-2.1-8.11Z"/>
      </g>
      <path class="cls-1" d="m246.99,284.53c3.66,26.32,18.93,78.45,82.28,84.33,1.99.18,2.36,2.93.49,3.62-21.42,7.92-73.16,31.83-83.3,80.71-.41,1.98-3.21,2.03-3.66.06-5.18-22.51-28.19-54.96-80.39-61.88-2-.27-2.26-3.06-.32-3.64,21.07-6.33,67.96-41.67,81.22-103.33.44-2.05,3.4-1.94,3.69.14Z"/>
    </g>
  </g>
</svg>